<?xml version="1.0" standalone="no"?>
<!DOCTYPE svg PUBLIC "-//W3C//DTD SVG 1.1//EN" "http://www.w3.org/Graphics/SVG/1.1/DTD/svg11.dtd" >
<svg xmlns="http://www.w3.org/2000/svg" xmlns:xlink="http://www.w3.org/1999/xlink" version="1.1">
<metadata>
Created by FontForge 20160407 at Thu Dec  1 15:58:17 2016
 By Jimmy Wärting
Copyright (c) 1990 Adobe Systems Incorporated.  All Rights Reserved.Helvetica is a trademark of Linotype AG and/or its subsidiaries.
</metadata>
<defs>
<font id="HelveticaNeueLT-ThinExt" horiz-adv-x="166" >
  <font-face 
    font-family="HelveticaNeue LT 33 ThinEx"
    font-weight="300"
    font-stretch="normal"
    units-per-em="1000"
    panose-1="2 0 3 0 0 0 0 0 0 0"
    ascent="800"
    descent="-200"
    x-height="512"
    cap-height="714"
    bbox="-165 -220 1162 950"
    underline-thickness="50"
    underline-position="-125"
    unicode-range="U+0020-2122"
  />
<missing-glyph horiz-adv-x="500" 
d="M63 0v783h375v-783h-375zM125 63h250v658h-250v-658z" />
    <glyph glyph-name=".notdef" horiz-adv-x="500" 
d="M63 0v783h375v-783h-375zM125 63h250v658h-250v-658z" />
    <glyph glyph-name=".null" horiz-adv-x="0" 
 />
    <glyph glyph-name="nonmarkingreturn" horiz-adv-x="222" 
 />
    <glyph glyph-name="space" unicode=" " horiz-adv-x="222" 
 />
    <glyph glyph-name="exclam" unicode="!" horiz-adv-x="258" 
d="M103 523v0v191h52v-191q0 -64 -4 -170q-4 -128 -5 -169h-34q-1 41 -5 169q-4 106 -4 170zM103 0v100h52v-100h-52z" />
    <glyph glyph-name="quotedbl" unicode="&#x22;" horiz-adv-x="352" 
d="M86 484v230h40v-230h-40zM226 484v230h40v-230h-40z" />
    <glyph glyph-name="numbersign" unicode="#" horiz-adv-x="648" 
d="M157 0l31 228h-113v34h118l25 180h-113v34h118l31 228h34l-31 -228h169l31 228h34l-31 -228h113v-34h-118l-25 -180h113v-34h-118l-31 -228h-34l31 228h-169l-31 -228h-34zM396 262l25 180h-169l-25 -180h169z" />
    <glyph glyph-name="dollar" unicode="$" horiz-adv-x="648" 
d="M344 335v-311q115 1 174 48q50 40 50 108q0 60 -35 90t-132 52zM310 388v292q-209 -4 -209 -144q0 -65 55 -99q45 -28 154 -49zM310 24v318l-51 11q-116 25 -163 65.5t-47 121.5q0 85 68.5 132t192.5 48v74h34v-74q250 -15 257 -215h-46q-13 167 -211 175v-299l62 -12
q110 -21 159 -61q55 -44 55 -125q0 -83 -58 -135q-71 -63 -218 -64v-94h-34v94q-282 14 -282 249h46q2 -198 236 -209z" />
    <glyph glyph-name="percent" unicode="%" horiz-adv-x="926" 
d="M231 337q-86 0 -131 54q-43 50 -43 139q0 86 45 138t129 52q87 0 132 -52q42 -49 42 -138q0 -86 -43 -137q-46 -56 -131 -56zM231 371q134 0 134 159q0 156 -134 156t-134 -156q0 -72 31 -113q35 -46 103 -46zM695 -16q-86 0 -131 54q-43 50 -43 139q0 86 45 138t129 52
q87 0 132 -52q42 -49 42 -138q0 -86 -43 -137q-46 -56 -131 -56zM695 18q134 0 134 159q0 156 -134 156t-134 -156q0 -72 31 -113q35 -46 103 -46zM170 -22l529 748h40l-529 -748h-40z" />
    <glyph glyph-name="ampersand" unicode="&#x26;" horiz-adv-x="741" 
d="M344 399l249 -237q40 53 40 129h46q0 -88 -56 -159l139 -132h-66l-100 96q-59 -61 -123.5 -86.5t-153.5 -25.5q-125 0 -196 66q-62 59 -62 146q0 83 75 141q41 32 137 71q-58 62 -75 87q-26 40 -26 86q0 51 35 89q45 50 132 50q72 0 118 -35q49 -38 49 -104
q0 -105 -162 -182zM218 583q0 -69 99 -155q64 29 92 52q51 41 51 97q0 53 -43 81q-33 22 -78 22q-58 0 -91 -31q-30 -27 -30 -66zM566 127l-264 253q-97 -38 -139 -73q-56 -45 -56 -110q0 -82 64 -129q59 -44 153 -44t169 43q47 27 73 60z" />
    <glyph glyph-name="quotesingle" unicode="'" horiz-adv-x="222" 
d="M91 484v230h40v-230h-40z" />
    <glyph glyph-name="parenleft" unicode="(" horiz-adv-x="296" 
d="M271 -190h-40q-163 230 -163 452t163 452h40q-82 -131 -112 -214q-39 -107 -39 -238t39 -238q30 -83 112 -214z" />
    <glyph glyph-name="parenright" unicode=")" horiz-adv-x="296" 
d="M25 714h40q163 -230 163 -452t-163 -452h-40q82 131 112 214q39 107 39 238t-39 238q-30 83 -112 214z" />
    <glyph glyph-name="asterisk" unicode="*" horiz-adv-x="408" 
d="M83 424l95 112l-139 50l14 33l134 -46v141h34v-141l134 46l14 -33l-139 -50l95 -112l-28 -22l-93 110l-93 -110z" />
    <glyph glyph-name="plus" unicode="+" horiz-adv-x="600" 
d="M47 233v40h233v233h40v-233h233v-40h-233v-233h-40v233h-233z" />
    <glyph glyph-name="comma" unicode="," horiz-adv-x="222" 
d="M85 0v100h52v-100q0 -102 -70 -130v34q36 16 36 81v15h-18z" />
    <glyph glyph-name="hyphenminus" unicode="-" horiz-adv-x="407" 
d="M75 247v46h257v-46h-257z" />
    <glyph glyph-name="period" unicode="." horiz-adv-x="222" 
d="M85 0v100h52v-100h-52z" />
    <glyph glyph-name="slash" unicode="/" horiz-adv-x="407" 
d="M418 730l-383 -746h-46l383 746h46z" />
    <glyph glyph-name="zero" unicode="0" horiz-adv-x="648" 
d="M619 352q0 -165 -64 -258q-75 -110 -231 -110q-154 0 -230 111q-65 95 -65 257t65 257q76 111 230 111q155 0 231 -110q64 -95 64 -258zM573 352q0 328 -249 328q-132 0 -196 -101q-53 -85 -53 -227q0 -143 52 -226q63 -102 197 -102q249 0 249 328z" />
    <glyph glyph-name="one" unicode="1" horiz-adv-x="426" 
d="M293 704v-704h-46v625q-85 -78 -222 -91v40q61 2 129 38q76 39 99 92h40z" />
    <glyph glyph-name="two" unicode="2" horiz-adv-x="648" 
d="M590 40v-40h-532q11 93 62 147q42 44 176 121q141 80 177 114q56 52 56 129q0 81 -54 125t-154 44q-205 0 -205 -211h-46q3 251 258 251q122 0 187 -58q60 -54 60 -149q0 -91 -58 -148q-42 -41 -204 -135q-90 -52 -127 -81q-76 -60 -76 -109h480z" />
    <glyph glyph-name="three" unicode="3" horiz-adv-x="648" 
d="M288 356v40q116 0 164 17q82 28 82 115q0 152 -197 152q-222 0 -222 -196h-46q7 236 268 236q113 0 178 -48.5t65 -136.5q0 -141 -156 -155v-2q66 -2 113 -41q61 -51 61 -151q0 -91 -67 -145q-72 -57 -203 -57q-275 0 -278 250h46q0 -210 237 -210q219 0 219 172
q0 104 -96 140q-54 20 -168 20z" />
    <glyph glyph-name="four" unicode="4" horiz-adv-x="648" 
d="M41 226l383 478h49v-485h134v-40h-134v-179h-46v179h-386v47zM425 646l-338 -427h340v427h-2z" />
    <glyph glyph-name="five" unicode="5" horiz-adv-x="648" 
d="M73 335l78 369h407v-40h-371l-60 -271h2q77 77 206 77q119 0 190 -66t71 -172q0 -120 -78 -186q-73 -62 -199 -62q-113 0 -186 59q-77 62 -81 170h46q16 -189 227 -189q106 0 165.5 53t59.5 153q0 81 -51 136q-61 64 -174 64q-71 0 -130 -31q-50 -26 -76 -64h-46z" />
    <glyph glyph-name="six" unicode="6" horiz-adv-x="648" 
d="M584 536h-46q-7 74 -68 111q-52 33 -131 33q-146 0 -202 -115q-40 -81 -40 -242h2q19 59 75 99q66 48 161 48q115 0 187 -62q75 -66 75 -178q0 -107 -72 -175q-74 -71 -196 -71q-278 0 -278 341q0 186 54 278q70 117 242 117q103 0 167.5 -50.5t69.5 -133.5zM338 430
q-108 0 -168.5 -55.5t-60.5 -144.5q0 -76 43 -130q59 -76 184 -76q95 0 155 56t60 150q0 88 -56 144t-157 56z" />
    <glyph glyph-name="seven" unicode="7" horiz-adv-x="593" 
d="M38 664v40h517v-45q-155 -158 -228 -299q-78 -149 -108 -360h-52q62 406 342 662v2h-471z" />
    <glyph glyph-name="eight" unicode="8" horiz-adv-x="648" 
d="M88 192q0 -77 56 -121q61 -47 180 -47q96 0 156 32q80 43 80 136q0 171 -236 171t-236 -171zM42 191q0 161 180 192v2q-146 32 -146 161q0 94 81 139q64 35 167 35t167 -35q81 -45 81 -139q0 -129 -146 -161v-2q180 -31 180 -192q0 -99 -72 -153t-210 -54t-210 54
t-72 153zM122 538q0 -135 202 -135t202 137q0 76 -66 112q-53 28 -136 28q-202 0 -202 -142z" />
    <glyph glyph-name="nine" unicode="9" horiz-adv-x="648" 
d="M64 168h46q7 -74 68 -111q52 -33 131 -33q146 0 202 115q40 81 40 242h-2q-19 -59 -74 -99q-67 -48 -162 -48q-115 0 -186 62q-76 66 -76 178q0 107 73 176.5t195 69.5q278 0 278 -341q0 -186 -54 -278q-70 -117 -242 -117q-103 0 -167.5 50.5t-69.5 133.5zM310 274
q108 0 170 57q59 54 59 143q0 76 -43 130q-59 76 -184 76q-95 0 -155 -56t-60 -150q0 -88 56 -144t157 -56z" />
    <glyph glyph-name="colon" unicode=":" horiz-adv-x="222" 
d="M85 395v100h52v-100h-52zM85 0v100h52v-100h-52z" />
    <glyph glyph-name="semicolon" unicode=";" horiz-adv-x="222" 
d="M85 0v100h52v-100q0 -102 -70 -130v34q36 16 36 81v15h-18zM85 395v100h52v-100h-52z" />
    <glyph glyph-name="less" unicode="&#x3c;" horiz-adv-x="600" 
d="M47 228v52l506 236v-40l-472 -223l472 -223v-40z" />
    <glyph glyph-name="equal" unicode="=" horiz-adv-x="600" 
d="M553 370v-40h-506v40h506zM553 176v-40h-506v40h506z" />
    <glyph glyph-name="greater" unicode="&#x3e;" horiz-adv-x="600" 
d="M47 -10v40l472 223l-472 223v40l506 -238v-52z" />
    <glyph glyph-name="question" unicode="?" horiz-adv-x="630" 
d="M326 184h-46v23q0 67 26 101q19 25 95 76q69 46 91.5 75.5t22.5 77.5q0 76 -63 117q-55 36 -138 36q-217 0 -218 -196h-46q1 119 72 180q66 56 186 56q115 0 182 -46q71 -50 71 -144q0 -61 -30 -102q-27 -37 -100 -84q-66 -43 -83 -63q-22 -26 -22 -74v-33zM277 0v100h52
v-100h-52z" />
    <glyph glyph-name="at" unicode="@" horiz-adv-x="800" 
d="M336 166q67 0 124 96q53 88 53 167q0 117 -88 117q-79 0 -138 -91q-54 -83 -54 -168q0 -54 29.5 -87.5t73.5 -33.5zM543 493l23 67h46l-101 -309q-12 -37 -12 -49q0 -30 40 -30q69 0 129 68q65 74 65 178q0 118 -88 195t-223 77q-159 0 -257 -96t-98 -237
q0 -137 97.5 -235t233.5 -98q175 0 256 85h46q-97 -125 -300 -125q-155 0 -264 108.5t-109 264.5q0 157 110 265t281 108q158 0 258 -88q97 -85 97 -214q0 -127 -84 -216q-74 -80 -157 -80q-70 0 -73 71h-2q-51 -71 -135 -71q-55 0 -92 41.5t-37 108.5q0 112 66 202
q71 96 170 96q41 0 74 -24.5t38 -62.5h2z" />
    <glyph glyph-name="A" unicode="A" horiz-adv-x="686" 
d="M-11 0l328 714h52l328 -714h-52l-105 230h-394l-105 -230h-52zM343 662l-179 -392h358z" />
    <glyph glyph-name="B" unicode="B" horiz-adv-x="722" 
d="M106 674v-284h318q183 0 183 145q0 91 -66 122q-38 17 -124 17h-311zM106 350v-310h322q203 0 203 160q0 98 -78 131q-44 19 -137 19h-310zM60 0v714h385q208 0 208 -176q0 -134 -140 -164v-2q92 -9 134 -70q30 -44 30 -106q0 -76 -46 -127q-61 -69 -193 -69h-378z" />
    <glyph glyph-name="C" unicode="C" horiz-adv-x="796" 
d="M714 271h46q-13 -113 -101 -194q-100 -93 -250 -93q-167 0 -271 98q-109 102 -109 275q0 146 92 251q105 122 288 122q132 0 221 -60q92 -63 118 -180h-46q-24 98 -109 151q-77 49 -184 49q-149 0 -243 -99q-91 -95 -91 -234q0 -142 85 -234q91 -99 249 -99
q120 0 202.5 66t102.5 181z" />
    <glyph glyph-name="D" unicode="D" horiz-adv-x="759" 
d="M60 0v714h334q320 0 320 -357q0 -163 -81 -257q-86 -100 -247 -100h-326zM106 674v-634h289q125 0 196 76q77 82 77 241q0 317 -284 317h-278z" />
    <glyph glyph-name="E" unicode="E" horiz-adv-x="648" 
d="M60 0v714h564v-40h-518v-284h497v-40h-497v-310h524v-40h-570z" />
    <glyph glyph-name="F" unicode="F" horiz-adv-x="593" 
d="M60 0v714h518v-40h-472v-284h446v-40h-446v-350h-46z" />
    <glyph glyph-name="G" unicode="G" horiz-adv-x="833" 
d="M440 316v40h333v-356h-40v176h-2q-39 -93 -125 -144q-81 -48 -187 -48q-167 0 -271 98q-109 102 -109 275q0 146 92 251q105 122 288 122q133 0 223 -63t116 -177h-46q-22 96 -104 150q-78 50 -189 50q-149 0 -243 -99q-91 -95 -91 -234q0 -142 85 -234q91 -99 249 -99
q135 0 217.5 78t90.5 214h-287z" />
    <glyph glyph-name="H" unicode="H" horiz-adv-x="759" 
d="M60 0v714h46v-318h547v318h46v-714h-46v356h-547v-356h-46z" />
    <glyph glyph-name="I" unicode="I" 
d="M60 0v714h46v-714h-46z" />
    <glyph glyph-name="J" unicode="J" horiz-adv-x="537" 
d="M24 228h46v-17q0 -187 183 -187q178 0 178 187v503h46v-499q0 -115 -59 -173t-165 -58q-229 0 -229 227v17z" />
    <glyph glyph-name="K" unicode="K" horiz-adv-x="704" 
d="M60 0v714h46v-410l514 410h73l-370 -295l396 -419h-64l-368 390l-181 -144v-246h-46z" />
    <glyph glyph-name="L" unicode="L" horiz-adv-x="574" 
d="M60 0v714h46v-674h468v-40h-514z" />
    <glyph glyph-name="M" unicode="M" horiz-adv-x="962" 
d="M65 0v714h69l347 -656l347 656h69v-714h-46v650h-2l-345 -650h-46l-345 650h-2v-650h-46z" />
    <glyph glyph-name="N" unicode="N" horiz-adv-x="759" 
d="M60 0v714h58l533 -650h2v650h46v-714h-58l-533 650h-2v-650h-46z" />
    <glyph glyph-name="O" unicode="O" horiz-adv-x="816" 
d="M75 357q0 -136 86 -231q93 -102 247 -102t247 102q86 95 86 231t-86 231q-93 102 -247 102t-247 -102q-86 -95 -86 -231zM29 357q0 134 81 239q103 134 298 134t298 -134q81 -105 81 -239t-81 -239q-103 -134 -298 -134t-298 134q-81 105 -81 239z" />
    <glyph glyph-name="P" unicode="P" horiz-adv-x="667" 
d="M60 0v714h372q217 0 217 -198q0 -94 -53 -146q-58 -56 -171 -56h-319v-314h-46zM106 674v-320h318q179 0 179 160q0 104 -72 140q-39 20 -118 20h-307z" />
    <glyph glyph-name="Q" unicode="Q" horiz-adv-x="816" 
d="M469 149l24 35l127 -91q121 100 121 264q0 136 -86 231q-93 102 -247 102t-247 -102q-86 -95 -86 -231t86 -231q93 -102 247 -102q99 0 175 45zM752 -51l-130 92q-88 -57 -214 -57q-195 0 -298 134q-81 105 -81 239t81 239q103 134 298 134t298 -134q81 -105 81 -239
q0 -74 -29 -147q-35 -87 -101 -142l119 -84z" />
    <glyph glyph-name="R" unicode="R" horiz-adv-x="704" 
d="M60 0v714h365q114 0 172 -38q69 -46 69 -151q0 -60 -35 -108q-40 -53 -111 -69v-2q64 -8 98.5 -48t35.5 -100q2 -165 20 -198h-46q-16 15 -20 166q-2 93 -40 126t-144 33h-318v-325h-46zM106 674v-309h311q203 0 203 163q0 146 -191 146h-323z" />
    <glyph glyph-name="S" unicode="S" horiz-adv-x="667" 
d="M28 236h46q2 -212 274 -212q123 0 185 48q54 42 54 111q0 61 -39 92.5t-149 54.5l-133 28q-119 25 -167.5 66t-48.5 121q0 83 70.5 134t199.5 51q292 0 299 -218h-46q-13 178 -240 178q-231 0 -231 -146q0 -59 33 -89q37 -33 136 -52l147 -29q114 -22 164 -62
q57 -44 57 -126q0 -85 -60 -137q-74 -65 -227 -65q-324 0 -324 252z" />
    <glyph glyph-name="T" unicode="T" horiz-adv-x="592" 
d="M-15 674v40h622v-40h-288v-674h-46v674h-288z" />
    <glyph glyph-name="U" unicode="U" horiz-adv-x="740" 
d="M54 264v450h46v-448q0 -120 61 -178q65 -64 209 -64t209 64q61 58 61 178v448h46v-450q0 -280 -316 -280t-316 280z" />
    <glyph glyph-name="V" unicode="V" horiz-adv-x="668" 
d="M308 0l-317 714h52l291 -656l291 656h52l-317 -714h-52z" />
    <glyph glyph-name="W" unicode="W" horiz-adv-x="1018" 
d="M220 0l-235 714h52l212 -650h2l229 650h58l229 -650h2l212 650h52l-235 -714h-58l-230 650h-2l-230 -650h-58z" />
    <glyph glyph-name="X" unicode="X" horiz-adv-x="648" 
d="M-9 0l303 363l-292 351h62l260 -315l265 315h58l-292 -351l302 -363h-61l-272 328l-275 -328h-58z" />
    <glyph glyph-name="Y" unicode="Y" horiz-adv-x="668" 
d="M311 300l-331 414h64l290 -371l296 371h58l-331 -414v-300h-46v300z" />
    <glyph glyph-name="Z" unicode="Z" horiz-adv-x="611" 
d="M-5 0v49l561 625h-528v40h580v-46l-561 -628h569v-40h-621z" />
    <glyph glyph-name="bracketleft" unicode="[" horiz-adv-x="296" 
d="M96 -190v904h166v-40h-120v-824h120v-40h-166z" />
    <glyph glyph-name="backslash" unicode="\" horiz-adv-x="407" 
d="M372 -16l-383 746h46l383 -746h-46z" />
    <glyph glyph-name="bracketright" unicode="]" horiz-adv-x="296" 
d="M154 -150v824h-120v40h166v-904h-166v40h120z" />
    <glyph glyph-name="asciicircum" unicode="^" horiz-adv-x="600" 
d="M39 251l236 453h52l234 -453h-40l-221 419l-221 -419h-40z" />
    <glyph glyph-name="underscore" unicode="_" horiz-adv-x="500" 
d="M500 -125h-500v50h500v-50z" />
    <glyph glyph-name="grave" unicode="`" 
d="M103 593l-157 142h58l144 -142h-45z" />
    <glyph glyph-name="a" unicode="a" horiz-adv-x="593" 
d="M476 192v94h-2q-21 -23 -82 -27l-173 -12q-147 -10 -147 -107q0 -116 167 -116q90 0 157 38q80 46 80 130zM95 354h-46q13 96 67 135t171 39q118 0 173 -32q62 -35 62 -118v-287q0 -34 4 -45q7 -16 30 -16q21 0 45 8v-40q-22 -8 -56 -8q-43 0 -55 31q-8 19 -8 81h-2
q-64 -118 -244 -118q-210 0 -210 156q0 134 193 147l179 12q44 3 59 14q19 15 19 59q0 57 -38 84q-46 32 -152 32q-98 0 -141 -32q-39 -30 -50 -102z" />
    <glyph glyph-name="b" unicode="b" horiz-adv-x="630" 
d="M56 0v714h46v-311h2q27 51 78 84q63 41 149 41q118 0 195.5 -75t77.5 -196q0 -115 -69 -191q-75 -82 -204 -82q-91 0 -154 41q-52 34 -73 87h-2v-112h-46zM336 24q98 0 160 63t62 171q0 111 -70 174q-63 56 -158 56q-93 0 -156 -51q-78 -63 -78 -186q0 -87 48 -148
q63 -79 192 -79z" />
    <glyph glyph-name="c" unicode="c" horiz-adv-x="611" 
d="M578 351h-46q-5 52 -65 93q-64 44 -152 44q-115 0 -182 -73q-61 -66 -61 -164q0 -80 52 -145q67 -82 191 -82q82 0 142 38q66 41 82 117h46q-19 -96 -97 -148q-71 -47 -173 -47q-127 0 -208 74t-81 193q0 130 86 206q80 71 203 71q112 0 188 -56q70 -51 75 -121z" />
    <glyph glyph-name="d" unicode="d" horiz-adv-x="630" 
d="M528 0v112h-2q-21 -53 -73 -87q-63 -41 -154 -41q-129 0 -204 82q-69 76 -69 191q0 121 77.5 196t195.5 75q86 0 150 -41q50 -33 77 -84h2v311h46v-714h-46zM294 24q129 0 192 79q48 61 48 148q0 123 -78 186q-63 51 -156 51q-95 0 -158 -56q-70 -63 -70 -174
q0 -108 62 -171t160 -63z" />
    <glyph glyph-name="e" unicode="e" horiz-adv-x="611" 
d="M594 246h-522q2 -99 65 -159q66 -63 179 -63q161 0 218 146h46q-62 -186 -269 -186q-131 0 -208 74.5t-77 201.5q0 100 61 174q78 94 225 94q131 0 207 -79q73 -77 75 -203zM72 286h470q-14 101 -80 154q-62 48 -155 48q-97 0 -158.5 -54.5t-76.5 -147.5z" />
    <glyph glyph-name="f" unicode="f" horiz-adv-x="296" 
d="M110 0v472h-120v40h120v77q0 66 25 96q30 35 105 35q21 0 79 -6v-40q-33 6 -73 6q-90 0 -90 -77v-91h148v-40h-148v-472h-46z" />
    <glyph glyph-name="g" unicode="g" horiz-adv-x="648" 
d="M305 488q-98 0 -162 -52q-71 -59 -71 -164q0 -109 62 -167.5t176 -58.5q105 0 168 55q68 60 68 172q0 101 -64 158t-177 57zM546 408v104h46v-487q0 -245 -280 -245q-123 0 -186 39q-67 41 -79 133h46q18 -132 219 -132q234 0 234 203v106h-2q-65 -123 -240 -123
q-140 0 -214 81q-64 70 -64 183q0 109 66 179q75 79 213 79q177 0 239 -119z" />
    <glyph glyph-name="h" unicode="h" horiz-adv-x="611" 
d="M56 0v714h46v-304h2q62 118 216 118q152 0 206 -83q29 -45 29 -129v-316h-46v314q0 85 -38 126q-45 48 -152 48q-106 0 -165 -59q-52 -52 -52 -130v-299h-46z" />
    <glyph glyph-name="i" unicode="i" 
d="M60 0v512h46v-512h-46zM60 608v106h46v-106h-46z" />
    <glyph glyph-name="j" unicode="j" 
d="M106 512v-604q0 -128 -132 -128q-32 0 -62 6v40q28 -6 62 -6q58 0 75 38q11 23 11 90v564h46zM60 608v106h46v-106h-46z" />
    <glyph glyph-name="k" unicode="k" horiz-adv-x="556" 
d="M56 0v714h46v-474l365 272h68l-259 -193l283 -319h-63l-256 290l-138 -102v-188h-46z" />
    <glyph glyph-name="l" unicode="l" 
d="M60 0v714h46v-714h-46z" />
    <glyph glyph-name="m" unicode="m" horiz-adv-x="964" 
d="M56 0v512h46v-87h2q30 49 82.5 76t114.5 27q157 0 196 -119q56 119 198 119q213 0 213 -181v-347h-46v332q0 69 -38 110q-43 46 -128 46q-93 0 -142 -45.5t-49 -127.5v-315h-46v341q0 147 -166 147q-86 0 -137 -47q-54 -49 -54 -136v-305h-46z" />
    <glyph glyph-name="n" unicode="n" horiz-adv-x="611" 
d="M56 0v512h46v-102h2q62 118 216 118q152 0 206 -83q29 -45 29 -129v-316h-46v314q0 85 -38 126q-45 48 -152 48q-106 0 -165 -59q-52 -52 -52 -130v-299h-46z" />
    <glyph glyph-name="o" unicode="o" horiz-adv-x="630" 
d="M72 256q0 -95 61 -160q67 -72 182 -72t182 72q61 65 61 160t-61 160q-67 72 -182 72t-182 -72q-61 -65 -61 -160zM26 256q0 113 76 190q81 82 213 82t213 -82q76 -77 76 -190t-76 -190q-81 -82 -213 -82t-213 82q-76 77 -76 190z" />
    <glyph glyph-name="p" unicode="p" horiz-adv-x="630" 
d="M56 -202v714h46v-112h2q21 53 73 87q63 41 154 41q129 0 204 -82q69 -76 69 -191q0 -121 -77.5 -196t-195.5 -75q-86 0 -149 42q-51 32 -78 83h-2v-311h-46zM336 488q-129 0 -192 -79q-48 -61 -48 -148q0 -123 78 -186q63 -51 156 -51q95 0 158 57q70 62 70 173
q0 108 -62 171t-160 63z" />
    <glyph glyph-name="q" unicode="q" horiz-adv-x="630" 
d="M528 -202v311h-2q-27 -51 -77 -83q-64 -42 -150 -42q-118 0 -195.5 75t-77.5 196q0 115 69 191q75 82 204 82q91 0 154 -41q52 -34 73 -87h2v112h46v-714h-46zM294 488q-98 0 -160 -63t-62 -171q0 -111 70 -173q63 -57 158 -57q93 0 156 51q78 63 78 186q0 87 -48 148
q-63 79 -192 79z" />
    <glyph glyph-name="r" unicode="r" horiz-adv-x="352" 
d="M56 0v512h46v-121h2q52 137 212 137q17 0 38 -6v-46q-16 6 -53 6q-94 0 -149 -63q-50 -58 -50 -142v-277h-46z" />
    <glyph glyph-name="s" unicode="s" horiz-adv-x="537" 
d="M496 362h-46q-5 65 -50.5 95.5t-143.5 30.5q-167 0 -167 -102q0 -73 103 -87l163 -22q161 -22 161 -140q0 -153 -245 -153q-240 0 -250 176h46q7 -60 36 -88q50 -48 180 -48q187 0 187 113q0 79 -103 93l-180 24q-144 19 -144 129q0 56 42 94q56 51 173 51
q226 0 238 -166z" />
    <glyph glyph-name="t" unicode="t" horiz-adv-x="315" 
d="M106 512v173h46v-173h152v-40h-152v-369q0 -45 27 -61q19 -12 66 -12q1 0 64 6v-40q-29 -6 -78 -6q-77 0 -103 32q-22 28 -22 106v344h-116v40h116z" />
    <glyph glyph-name="u" unicode="u" horiz-adv-x="611" 
d="M555 512v-512h-46v102h-2q-62 -118 -216 -118q-152 0 -206 83q-29 45 -29 129v316h46v-314q0 -85 38 -126q45 -48 152 -48q106 0 165 59q52 52 52 130v299h46z" />
    <glyph glyph-name="v" unicode="v" horiz-adv-x="556" 
d="M255 0l-253 512h52l224 -466l224 466h52l-253 -512h-46z" />
    <glyph glyph-name="w" unicode="w" horiz-adv-x="870" 
d="M231 58l175 454h58l181 -454l179 454h52l-209 -512h-52l-180 460l-180 -460h-52l-209 512h52z" />
    <glyph glyph-name="x" unicode="x" horiz-adv-x="537" 
d="M-11 0l248 267l-227 245h64l195 -211l196 211h58l-225 -242l250 -270h-64l-218 235l-219 -235h-58z" />
    <glyph glyph-name="y" unicode="y" horiz-adv-x="519" 
d="M246 0l-259 512h52l230 -461l211 461h52l-282 -602q-23 -48 -46 -68q-31 -26 -86 -26h-64v40h55q44 0 62.5 16t48.5 76z" />
    <glyph glyph-name="z" unicode="z" horiz-adv-x="519" 
d="M12 0v46l417 426h-391v40h455v-34l-429 -438h443v-40h-495z" />
    <glyph glyph-name="braceleft" unicode="{" horiz-adv-x="296" 
d="M53 242v40q72 4 72 162v152q0 65 23 93q21 25 65 25h58v-40h-48q-38 0 -48 -30q-4 -13 -4 -66v-151q0 -132 -72 -165q72 -33 72 -165v-151q0 -53 4 -66q10 -30 48 -30h48v-40h-58q-44 0 -66 26.5t-22 91.5v152q0 158 -72 162z" />
    <glyph glyph-name="bar" unicode="|" horiz-adv-x="222" 
d="M91 -16v746h40v-746h-40z" />
    <glyph glyph-name="braceright" unicode="}" horiz-adv-x="296" 
d="M125 -54v151q0 132 72 165q-72 33 -72 165v151q0 53 -4 66q-10 30 -48 30h-48v40h58q44 0 65 -25q23 -28 23 -93v-152q0 -158 72 -162v-40q-72 -4 -72 -162v-152q0 -65 -22 -91.5t-66 -26.5h-58v40h48q38 0 48 30q4 13 4 66z" />
    <glyph glyph-name="asciitilde" unicode="~" horiz-adv-x="600" 
d="M101 192v0l-29 32q26 43 50 61q29 22 72 22q40 0 111 -32q23 -11 46 -23q30 -13 56 -13q52 0 92 75l29 -30q-57 -85 -122 -85q-39 0 -114 38q-59 30 -92 30q-66 0 -99 -75z" />
    <glyph glyph-name="Euro" horiz-adv-x="648" 
d="M616 583q-11 17 -31 36t-52 34q-30 14 -65.5 20.5t-69.5 6.5q-23 0 -49 -3.5t-53 -13t-53.5 -27.5t-48.5 -47q-21 -27 -37 -66t-21 -81h409l-16 -34h-398q-5 -56 0 -112h351l-16 -34h-331q6 -42 22.5 -83t40.5 -70q21 -26 45.5 -42.5t50 -26t52 -13t52.5 -3.5
q78 0 137 31q26 14 50 34.5t43 46.5v-60q-13 -14 -31.5 -29.5t-44.5 -29.5q-36 -18 -75 -25.5t-82 -7.5q-24 0 -53.5 3t-60 13.5t-60.5 29t-57 50.5q-31 37 -50 85.5t-25 96.5h-89l16 34h69q-5 56 0 112h-85l16 34h74q5 45 24.5 96.5t54.5 90.5q14 16 35 32t49.5 29t65 21.5
t83.5 8.5q41 0 81.5 -8t72.5 -23q31 -14 50.5 -31.5t31.5 -32.5z" />
    <glyph glyph-name="Euro" unicode="&#x20ac;" horiz-adv-x="648" 
d="M616 583q-11 17 -31 36t-52 34q-30 14 -65.5 20.5t-69.5 6.5q-23 0 -49 -3.5t-53 -13t-53.5 -27.5t-48.5 -47q-21 -27 -37 -66t-21 -81h409l-16 -34h-398q-5 -56 0 -112h351l-16 -34h-331q6 -42 22.5 -83t40.5 -70q21 -26 45.5 -42.5t50 -26t52 -13t52.5 -3.5
q78 0 137 31q26 14 50 34.5t43 46.5v-60q-13 -14 -31.5 -29.5t-44.5 -29.5q-36 -18 -75 -25.5t-82 -7.5q-24 0 -53.5 3t-60 13.5t-60.5 29t-57 50.5q-31 37 -50 85.5t-25 96.5h-89l16 34h69q-5 56 0 112h-85l16 34h74q5 45 24.5 96.5t54.5 90.5q14 16 35 32t49.5 29t65 21.5
t83.5 8.5q41 0 81.5 -8t72.5 -23q31 -14 50.5 -31.5t31.5 -32.5z" />
    <glyph glyph-name="quotesinglbase" unicode="&#x201a;" horiz-adv-x="222" 
d="M85 0v100h52v-100q0 -102 -70 -130v34q36 16 36 81v15h-18z" />
    <glyph glyph-name="florin" unicode="&#x192;" horiz-adv-x="648" 
d="M148 390l8 34h138l33 153q17 78 54.5 110.5t115.5 32.5q32 0 69 -6l-8 -40q-7 3 -68 6q-57 1 -85 -30q-24 -26 -36 -86l-29 -140h141l-6 -34h-142l-83 -398q-20 -98 -45 -131q-40 -51 -135 -51q-27 0 -71 4l7 40q28 -4 64 -4q62 0 91 30q21 21 31 68l95 442h-139z" />
    <glyph glyph-name="quotedblbase" unicode="&#x201e;" horiz-adv-x="352" 
d="M74 0v100h52v-100q0 -102 -70 -130v34q36 16 36 81v15h-18zM226 0v100h52v-100q0 -102 -70 -130v34q36 16 36 81v15h-18z" />
    <glyph glyph-name="ellipsis" unicode="&#x2026;" horiz-adv-x="1000" 
d="M141 0v100h52v-100h-52zM474 0v100h52v-100h-52zM807 0v100h52v-100h-52z" />
    <glyph glyph-name="dagger" unicode="&#x2020;" horiz-adv-x="648" 
d="M50 430v40h251v244h46v-244h251v-40h-251v-586h-46v586h-251z" />
    <glyph glyph-name="daggerdbl" unicode="&#x2021;" horiz-adv-x="648" 
d="M50 46v40h251v386h-251v40h251v202h46v-202h251v-40h-251v-386h251v-40h-251v-202h-46v202h-251z" />
    <glyph glyph-name="circumflex" unicode="&#x2c6;" 
d="M266 593h-53l-130 114l-130 -114h-53l155 142h56z" />
    <glyph glyph-name="perthousand" unicode="&#x2030;" horiz-adv-x="1167" 
d="M988 -16q-86 0 -131 54q-43 50 -43 139q0 86 45 138t129 52q87 0 132 -52q42 -49 42 -138q0 -86 -43 -137q-46 -56 -131 -56zM988 18q134 0 134 159q0 156 -134 156t-134 -156q0 -72 31 -113q35 -46 103 -46zM589 -16q-86 0 -131 54q-43 50 -43 139q0 86 45 138t129 52
q87 0 132 -52q42 -49 42 -138q0 -86 -43 -137q-46 -56 -131 -56zM589 18q134 0 134 159q0 156 -134 156t-134 -156q0 -72 31 -113q35 -46 103 -46zM179 337q-86 0 -131 54q-43 50 -43 139q0 86 45 138t129 52q87 0 132 -52q42 -49 42 -138q0 -86 -43 -137q-46 -56 -131 -56z
M179 371q134 0 134 159q0 156 -134 156t-134 -156q0 -72 31 -113q35 -46 103 -46zM91 -22l529 748h40l-529 -748h-40z" />
    <glyph glyph-name="Scaron" unicode="&#x160;" horiz-adv-x="667" 
d="M28 236h46q2 -212 274 -212q123 0 185 48q54 42 54 111q0 61 -39 92.5t-149 54.5l-133 28q-119 25 -167.5 66t-48.5 121q0 83 70.5 134t199.5 51q292 0 299 -218h-46q-13 178 -240 178q-231 0 -231 -146q0 -59 33 -89q37 -33 136 -52l147 -29q114 -22 164 -62
q57 -44 57 -126q0 -85 -60 -137q-74 -65 -227 -65q-324 0 -324 252zM464 897h53l-155 -142h-56l-155 142h53l130 -114z" />
    <glyph glyph-name="guilsinglleft" unicode="&#x2039;" horiz-adv-x="296" 
d="M73 247v46l136 135v-54l-102 -104l102 -104v-54z" />
    <glyph glyph-name="OE" unicode="&#x152;" horiz-adv-x="1167" 
d="M632 140v438q0 35 -64 71q-72 41 -168 41q-151 0 -237 -94q-83 -90 -83 -237q0 -142 71 -230q84 -105 249 -105q100 0 172 45q60 38 60 71zM678 350v-310h471v-40h-517v76q-85 -92 -236 -92q-165 0 -263.5 100t-98.5 275q0 170 105 273q100 98 257 98q153 0 236 -84v68
h511v-40h-465v-284h444v-40h-444z" />
    <glyph glyph-name="Zcaron" horiz-adv-x="611" 
d="M-5 0v49l561 625h-528v40h580v-46l-561 -628h569v-40h-621zM436 897h53l-155 -142h-56l-155 142h53l130 -114z" />
    <glyph glyph-name="Zcaron" unicode="&#x17d;" horiz-adv-x="611" 
d="M-5 0v49l561 625h-528v40h580v-46l-561 -628h569v-40h-621zM436 897h53l-155 -142h-56l-155 142h53l130 -114z" />
    <glyph glyph-name="quoteleft" unicode="&#x2018;" horiz-adv-x="222" 
d="M85 484v100q0 102 70 130v-34q-36 -16 -36 -81v-15h18v-100h-52z" />
    <glyph glyph-name="quoteright" unicode="&#x2019;" horiz-adv-x="222" 
d="M85 614v100h52v-100q0 -102 -70 -130v34q36 16 36 81v15h-18z" />
    <glyph glyph-name="quotedblleft" unicode="&#x201c;" horiz-adv-x="352" 
d="M74 484v100q0 102 70 130v-34q-36 -16 -36 -81v-15h18v-100h-52zM226 484v100q0 102 70 130v-34q-36 -16 -36 -81v-15h18v-100h-52z" />
    <glyph glyph-name="quotedblright" unicode="&#x201d;" horiz-adv-x="352" 
d="M74 614v100h52v-100q0 -102 -70 -130v34q36 16 36 81v15h-18zM226 614v100h52v-100q0 -102 -70 -130v34q36 16 36 81v15h-18z" />
    <glyph glyph-name="bullet" unicode="&#x2022;" horiz-adv-x="500" 
d="M72 357q0 74 52.5 126t125.5 52q74 0 126 -52t52 -126q0 -73 -52 -125.5t-126 -52.5q-73 0 -125.5 52.5t-52.5 125.5z" />
    <glyph glyph-name="endash" unicode="&#x2013;" horiz-adv-x="500" 
d="M0 253v34h500v-34h-500z" />
    <glyph glyph-name="emdash" unicode="&#x2014;" horiz-adv-x="1000" 
d="M0 253v34h1000v-34h-1000z" />
    <glyph glyph-name="tilde" unicode="&#x2dc;" 
d="M-57 616v0h-34q4 35 30 61.5t64 26.5q33 0 86.5 -27t78.5 -27q44 0 55 54h34q-5 -36 -28 -62t-58 -26q-36 0 -90.5 27t-80.5 27q-23 0 -39 -16t-18 -38z" />
    <glyph glyph-name="trademark" unicode="&#x2122;" horiz-adv-x="990" 
d="M187 302v378h-143v34h320v-34h-143v-378h-34zM832 302v378h-2l-167 -378h-18l-167 378h-2v-378h-34v412h58l154 -346l154 346h58v-412h-34z" />
    <glyph glyph-name="scaron" unicode="&#x161;" horiz-adv-x="537" 
d="M496 362h-46q-5 65 -50.5 95.5t-143.5 30.5q-167 0 -167 -102q0 -73 103 -87l163 -22q161 -22 161 -140q0 -153 -245 -153q-240 0 -250 176h46q7 -60 36 -88q50 -48 180 -48q187 0 187 113q0 79 -103 93l-180 24q-144 19 -144 129q0 56 42 94q56 51 173 51
q226 0 238 -166zM399 735h53l-155 -142h-56l-155 142h53l130 -114z" />
    <glyph glyph-name="guilsinglright" unicode="&#x203a;" horiz-adv-x="296" 
d="M189 270l-102 104v54l136 -135v-46l-136 -135v54z" />
    <glyph glyph-name="oe" unicode="&#x153;" horiz-adv-x="1074" 
d="M561 286h441q-25 202 -220 202q-94 0 -157.5 -61t-63.5 -141zM996 165h46q-19 -84 -89.5 -132.5t-170.5 -48.5q-87 0 -152 39q-71 43 -90 119h-2q-60 -158 -245 -158q-122 0 -194.5 74.5t-72.5 197.5q0 120 75.5 196t195.5 76q186 0 244 -159h2q68 159 239 159
q128 0 197 -79q65 -73 69 -203h-487q0 -102 59 -162t162 -60q175 0 214 141zM521 256q0 107 -59 169.5t-165 62.5q-104 0 -164.5 -63t-60.5 -169q0 -105 59.5 -168.5t165.5 -63.5q104 0 164 63t60 169z" />
    <glyph glyph-name="zcaron" horiz-adv-x="519" 
d="M12 0v46l417 426h-391v40h455v-34l-429 -438h443v-40h-495zM390 735h53l-155 -142h-56l-155 142h53l130 -114z" />
    <glyph glyph-name="zcaron" unicode="&#x17e;" horiz-adv-x="519" 
d="M12 0v46l417 426h-391v40h455v-34l-429 -438h443v-40h-495zM390 735h53l-155 -142h-56l-155 142h53l130 -114z" />
    <glyph glyph-name="Ydieresis" unicode="&#x178;" horiz-adv-x="668" 
d="M311 300l-331 414h64l290 -371l296 371h58l-331 -414v-300h-46v300zM205 760v106h46v-106h-46zM417 760v106h46v-106h-46z" />
    <glyph glyph-name="nonbreakingspace" unicode="&#xa0;" horiz-adv-x="222" 
 />
    <glyph glyph-name="exclamdown" unicode="&#xa1;" horiz-adv-x="258" 
d="M103 -202v191q0 64 4 170q4 128 5 169h34q1 -41 5 -169q4 -106 4 -170v-191h-52zM103 412v100h52v-100h-52z" />
    <glyph glyph-name="cent" unicode="&#xa2;" horiz-adv-x="648" 
d="M310 25v462q-104 -7 -164 -79q-55 -65 -55 -157q0 -76 47 -139q60 -80 172 -87zM310 -125v110q-117 7 -191 80t-74 186q0 124 78 199q72 71 187 77v93h34v-92q108 -2 181 -58q67 -51 72 -119h-46q-5 50 -61 91q-62 44 -146 46v-464q82 0 139.5 40t73.5 115h46
q-19 -94 -92 -146q-69 -49 -167 -49v-109h-34z" />
    <glyph glyph-name="sterling" unicode="&#xa3;" horiz-adv-x="648" 
d="M55 322v34h75q-59 102 -59 173q0 65 42 114q66 77 213 77q267 0 267 -242h-46q0 202 -222 202q-84 0 -140 -33q-68 -40 -68 -118q0 -54 65 -173h227v-34h-213q19 -49 19 -82q0 -110 -119 -206l2 -2q64 36 132 36q36 0 103.5 -22t99.5 -22q85 0 154 81l21 -38
q-79 -83 -175 -83q-38 0 -108.5 22t-107.5 22q-47 0 -78 -10q-22 -7 -73 -34l-26 39q66 58 94 100q35 53 35 110q0 49 -25 89h-89z" />
    <glyph glyph-name="currency" unicode="&#xa4;" horiz-adv-x="648" 
d="M566 138l-27 -28l-54 55q-70 -61 -161 -61q-93 0 -161 61l-55 -55l-28 26l57 55q-60 71 -61 161q-1 92 61 161l-57 56l28 26l55 -55q70 59 161 60q90 1 161 -61l54 56l27 -28l-55 -54q61 -68 61 -161t-61 -160zM122 352q0 -84 59 -143t143 -59t143 59t59 143t-59 143
t-143 59t-143 -59t-59 -143z" />
    <glyph glyph-name="yen" unicode="&#xa5;" horiz-adv-x="648" 
d="M301 0v170h-211v34h211v96l-12 16h-199v34h173l-273 354h64l265 -354h10l271 354h58l-273 -354h173v-34h-199l-12 -16v-96h211v-34h-211v-170h-46z" />
    <glyph glyph-name="brokenbar" unicode="&#xa6;" horiz-adv-x="222" 
d="M91 -16v270h40v-270h-40zM91 460v270h40v-270h-40z" />
    <glyph glyph-name="section" unicode="&#xa7;" horiz-adv-x="648" 
d="M530 549h-46q0 141 -168 141q-161 0 -161 -103q0 -52 73 -86l266 -123q110 -51 110 -133q0 -72 -56 -113q-34 -26 -77 -33q30 -22 41 -37q24 -31 24 -76q0 -148 -218 -148t-218 188h46q0 -148 174 -148q170 0 170 101q0 44 -32 72q-20 18 -76 44l-204 95q-77 36 -107 72
q-27 33 -27 79q0 104 131 141q-66 43 -66 108q0 66 54 103t142 37q225 0 225 -181zM461 343l-253 117q-29 0 -68 -27q-50 -35 -50 -86q0 -45 31 -72q20 -18 79 -45l236 -109q5 -2 33 7q36 11 58 32q31 29 31 72q0 44 -33 73q-19 17 -64 38z" />
    <glyph glyph-name="dieresis" unicode="&#xa8;" 
d="M-46 598v106h46v-106h-46zM166 598v106h46v-106h-46z" />
    <glyph glyph-name="copyright" unicode="&#xa9;" horiz-adv-x="800" 
d="M67 357q0 -138 97.5 -235.5t235.5 -97.5t235.5 97.5t97.5 235.5t-97.5 235.5t-235.5 97.5t-235.5 -97.5t-97.5 -235.5zM602 438h-40q-11 56 -50.5 88.5t-99.5 32.5q-87 0 -136.5 -56t-49.5 -145q0 -86 51.5 -145t134.5 -59q126 0 150 127h40q-10 -72 -63.5 -116.5
t-126.5 -44.5q-101 0 -163.5 67.5t-62.5 170.5q0 104 61 169.5t165 65.5q74 0 126.5 -41.5t63.5 -113.5zM27 357q0 155 109.5 264t263.5 109q155 0 264 -109t109 -264q0 -154 -109 -263.5t-264 -109.5q-154 0 -263.5 109.5t-109.5 263.5z" />
    <glyph glyph-name="ordfeminine" unicode="&#xaa;" horiz-adv-x="385" 
d="M306 521v53q-17 -14 -56 -17l-113 -8q-86 -6 -86 -64q0 -67 105 -67q55 0 98 23q52 29 52 80zM340 633v-164q0 -21 3 -28q4 -11 19 -11q9 0 29 4v-28q-4 -2 -40 -4q-30 -1 -39 17q-6 12 -6 45h-2q-40 -74 -150 -74q-137 0 -137 97q0 81 123 90l112 8q54 4 54 36t-18 48
q-26 23 -97 23q-125 0 -125 -77h-34q0 105 149 105q74 0 110 -15q49 -20 49 -72z" />
    <glyph glyph-name="guillemotleft" unicode="&#xab;" horiz-adv-x="444" 
d="M255 270l102 -104v-54l-136 135v46l136 135v-54zM107 270l102 -104v-54l-136 135v46l136 135v-54z" />
    <glyph glyph-name="logicalnot" unicode="&#xac;" horiz-adv-x="600" 
d="M513 108v222h-466v40h506v-262h-40z" />
    <glyph glyph-name="hyphen" unicode="&#xad;" horiz-adv-x="407" 
d="M75 247v46h257v-46h-257z" />
    <glyph glyph-name="registered" unicode="&#xae;" horiz-adv-x="800" 
d="M256 136v442h170q71 0 105 -25q39 -29 39 -97q0 -100 -113 -118l133 -202h-46l-133 202h-115v-202h-40zM296 544v-172h94q72 0 101 13q39 18 39 71q0 88 -104 88h-130zM67 357q0 -138 97.5 -235.5t235.5 -97.5t235.5 97.5t97.5 235.5t-97.5 235.5t-235.5 97.5
t-235.5 -97.5t-97.5 -235.5zM27 357q0 155 109.5 264t263.5 109q155 0 264 -109t109 -264q0 -154 -109 -263.5t-264 -109.5q-154 0 -263.5 109.5t-109.5 263.5z" />
    <glyph glyph-name="macron" unicode="&#xaf;" 
d="M-108 640v34h382v-34h-382z" />
    <glyph glyph-name="degree" unicode="&#xb0;" horiz-adv-x="400" 
d="M55 575q0 60 42.5 102.5t102.5 42.5t102.5 -42.5t42.5 -102.5t-42.5 -102.5t-102.5 -42.5t-102.5 42.5t-42.5 102.5zM89 575q0 -46 32.5 -78.5t78.5 -32.5t78.5 32.5t32.5 78.5t-32.5 78.5t-78.5 32.5t-78.5 -32.5t-32.5 -78.5z" />
    <glyph glyph-name="plusminus" unicode="&#xb1;" horiz-adv-x="600" 
d="M47 278v40h233v188h40v-188h233v-40h-233v-188h-40v188h-233zM47 0v40h506v-40h-506z" />
    <glyph glyph-name="twosuperior" unicode="&#xb2;" horiz-adv-x="421" 
d="M383 322v-28h-345q8 60 42 94q25 23 106 66q94 49 112 63q40 32 40 81q0 48 -39 73q-33 21 -83 21q-136 0 -136 -121h-34q0 149 170 149q66 0 107 -27q49 -32 49 -95q0 -56 -43 -94q-29 -26 -122 -72q-62 -31 -88 -50q-37 -28 -47 -60h311z" />
    <glyph glyph-name="threesuperior" unicode="&#xb3;" horiz-adv-x="421" 
d="M187 500v28q66 0 97 10q57 18 57 71q0 83 -122 83q-61 0 -97 -26q-41 -29 -41 -88h-34q4 142 178 142q59 0 99 -23q51 -29 51 -88q0 -81 -101 -92v-2q49 0 81 -30t32 -82q0 -129 -178 -129q-175 0 -175 154h34q0 -126 148 -126q55 0 92 22q45 27 45 80q0 61 -59 83
q-36 13 -107 13z" />
    <glyph glyph-name="acute" unicode="&#xb4;" 
d="M162 735h58l-157 -142h-45z" />
    <glyph glyph-name="mu" unicode="&#xb5;" horiz-adv-x="611" 
d="M555 512v-512h-46v102h-2q-62 -118 -216 -118q-133 0 -187 80h-2v-266h-46v714h46v-314q0 -85 38 -126q45 -48 152 -48q106 0 165 59q52 52 52 130v299h46z" />
    <glyph glyph-name="paragraph" unicode="&#xb6;" horiz-adv-x="600" 
d="M258 -146v470q-87 0 -147 57t-60 137q0 95 58.5 145.5t164.5 50.5h217v-860h-40v820h-153v-820h-40z" />
    <glyph glyph-name="periodcentered" unicode="&#xb7;" horiz-adv-x="222" 
d="M55 320q0 23 16.5 39.5t39.5 16.5t39.5 -16.5t16.5 -39.5t-16.5 -39.5t-39.5 -16.5t-39.5 16.5t-16.5 39.5z" />
    <glyph glyph-name="periodcentered" unicode="&#x2219;" horiz-adv-x="222" 
d="M55 320q0 23 16.5 39.5t39.5 16.5t39.5 -16.5t16.5 -39.5t-16.5 -39.5t-39.5 -16.5t-39.5 16.5t-16.5 39.5z" />
    <glyph glyph-name="cedilla" unicode="&#xb8;" 
d="M17 -76l63 76h34l-51 -55l2 -2q29 6 44 6q33 0 58 -15q27 -18 27 -48q0 -39 -37 -59q-30 -17 -74 -17q-49 0 -111 18l10 28q48 -18 90 -18q82 0 82 45q0 38 -61 38q-31 0 -59 -12z" />
    <glyph glyph-name="onesuperior" unicode="&#xb9;" horiz-adv-x="388" 
d="M201 286v369q-55 -46 -145 -55v28q40 2 84 23q49 24 64 57h31v-422h-34z" />
    <glyph glyph-name="ordmasculine" unicode="&#xba;" horiz-adv-x="410" 
d="M51 555q0 -55 39 -94q43 -43 115 -43t115 43q39 39 39 94t-39 94q-43 43 -115 43t-115 -43q-39 -39 -39 -94zM17 555q0 77 56 123q52 42 132 42t132 -42q56 -46 56 -123t-56 -123q-52 -42 -132 -42t-132 42q-56 46 -56 123z" />
    <glyph glyph-name="guillemotright" unicode="&#xbb;" horiz-adv-x="444" 
d="M337 270l-102 104v54l136 -135v-46l-136 -135v54zM189 270l-102 104v54l136 -135v-46l-136 -135v54z" />
    <glyph glyph-name="onequarter" unicode="&#xbc;" horiz-adv-x="972" 
d="M554 142l245 280h34v-285h89v-28h-89v-109h-34v109h-245v33zM799 137v245l-211 -245h211zM176 286v369q-55 -46 -145 -55v28q40 2 84 23q49 24 64 57h31v-422h-34zM203 -16l457 736h40l-457 -736h-40z" />
    <glyph glyph-name="onehalf" unicode="&#xbd;" horiz-adv-x="972" 
d="M203 -16l457 736h40l-457 -736h-40zM176 286v369q-55 -46 -145 -55v28q40 2 84 23q49 24 64 57h31v-422h-34zM909 28v-28h-345q8 60 42 94q25 23 106 66q94 49 112 63q40 32 40 81q0 48 -39 73q-33 21 -83 21q-136 0 -136 -121h-34q0 149 170 149q66 0 107 -27
q49 -32 49 -95q0 -56 -43 -94q-29 -26 -122 -72q-62 -31 -88 -50q-37 -28 -47 -60h311z" />
    <glyph glyph-name="threequarters" unicode="&#xbe;" horiz-adv-x="972" 
d="M554 142l245 282h34v-287h89v-28h-89v-109h-34v109h-245v33zM799 137v247l-211 -247h211zM273 -16l457 736h40l-457 -736h-40zM207 500v28q66 0 97 10q57 18 57 71q0 83 -122 83q-61 0 -97 -26q-41 -29 -41 -88h-34q4 142 178 142q59 0 99 -23q51 -29 51 -88
q0 -81 -101 -92v-2q49 0 81 -30t32 -82q0 -129 -178 -129q-175 0 -175 154h34q0 -126 148 -126q55 0 92 22q45 27 45 80q0 61 -59 83q-36 13 -107 13z" />
    <glyph glyph-name="questiondown" unicode="&#xbf;" horiz-adv-x="630" 
d="M304 328h46v-23q0 -67 -26 -101q-19 -25 -95 -76q-69 -46 -90 -75q-24 -30 -24 -78q0 -76 63 -117q55 -36 138 -36q217 0 218 196h46q-1 -119 -72 -180q-66 -56 -186 -56q-115 0 -182 46q-71 50 -71 144q0 61 30 102q27 37 100 84q66 43 83 63q22 26 22 74v33zM353 512
v-100h-52v100h52z" />
    <glyph glyph-name="Agrave" unicode="&#xc0;" horiz-adv-x="686" 
d="M-11 0l328 714h52l328 -714h-52l-105 230h-394l-105 -230h-52zM343 662l-179 -392h358zM363 755l-157 142h58l144 -142h-45z" />
    <glyph glyph-name="Aacute" unicode="&#xc1;" horiz-adv-x="686" 
d="M-11 0l328 714h52l328 -714h-52l-105 230h-394l-105 -230h-52zM343 662l-179 -392h358zM422 897h58l-157 -142h-45z" />
    <glyph glyph-name="Acircumflex" unicode="&#xc2;" horiz-adv-x="686" 
d="M-11 0l328 714h52l328 -714h-52l-105 230h-394l-105 -230h-52zM343 662l-179 -392h358zM526 755h-53l-130 114l-130 -114h-53l155 142h56z" />
    <glyph glyph-name="Atilde" unicode="&#xc3;" horiz-adv-x="686" 
d="M-11 0l328 714h52l328 -714h-52l-105 230h-394l-105 -230h-52zM343 662l-179 -392h358zM203 778v0h-34q4 35 30 61.5t64 26.5q33 0 86.5 -27t78.5 -27q44 0 55 54h34q-5 -36 -28 -62t-58 -26q-36 0 -90.5 27t-80.5 27q-23 0 -39 -16t-18 -38z" />
    <glyph glyph-name="Adieresis" unicode="&#xc4;" horiz-adv-x="686" 
d="M-11 0l328 714h52l328 -714h-52l-105 230h-394l-105 -230h-52zM343 662l-179 -392h358zM214 760v106h46v-106h-46zM426 760v106h46v-106h-46z" />
    <glyph glyph-name="Aring" unicode="&#xc5;" horiz-adv-x="686" 
d="M-11 0l328 714h52l328 -714h-52l-105 230h-394l-105 -230h-52zM343 662l-179 -392h358zM233 840q0 46 32 78t78 32t78 -32t32 -78t-32 -78t-78 -32t-78 32t-32 78zM267 840q0 -31 22.5 -53.5t53.5 -22.5q32 0 54 22.5t22 53.5q0 32 -22 54t-54 22q-31 0 -53.5 -22
t-22.5 -54z" />
    <glyph glyph-name="AE" unicode="&#xc6;" horiz-adv-x="1056" 
d="M-33 0l464 714h601v-40h-472v-284h451v-40h-451v-310h478v-40h-524v257h-326l-166 -257h-55zM457 674l-243 -377h300v377h-57z" />
    <glyph glyph-name="Ccedilla" unicode="&#xc7;" horiz-adv-x="796" 
d="M714 271h46q-13 -112 -100 -193q-98 -92 -246 -94l-36 -39l2 -2q29 6 44 6q33 0 58 -15q27 -18 27 -48q0 -39 -37 -59q-30 -17 -74 -17q-49 0 -111 18l10 28q48 -18 90 -18q82 0 82 45q0 38 -61 38q-31 0 -59 -12l-17 15l51 61q-157 8 -253 105q-101 101 -101 267
q0 146 92 251q105 122 288 122q132 0 221 -60q92 -63 118 -180h-46q-24 98 -109 151q-77 49 -184 49q-149 0 -243 -99q-91 -95 -91 -234q0 -142 85 -234q91 -99 249 -99q120 0 202.5 66t102.5 181z" />
    <glyph glyph-name="Egrave" unicode="&#xc8;" horiz-adv-x="648" 
d="M60 0v714h564v-40h-518v-284h497v-40h-497v-310h524v-40h-570zM344 755l-157 142h58l144 -142h-45z" />
    <glyph glyph-name="Eacute" unicode="&#xc9;" horiz-adv-x="648" 
d="M60 0v714h564v-40h-518v-284h497v-40h-497v-310h524v-40h-570zM403 897h58l-157 -142h-45z" />
    <glyph glyph-name="Ecircumflex" unicode="&#xca;" horiz-adv-x="648" 
d="M60 0v714h564v-40h-518v-284h497v-40h-497v-310h524v-40h-570zM507 755h-53l-130 114l-130 -114h-53l155 142h56z" />
    <glyph glyph-name="Edieresis" unicode="&#xcb;" horiz-adv-x="648" 
d="M60 0v714h564v-40h-518v-284h497v-40h-497v-310h524v-40h-570zM195 760v106h46v-106h-46zM407 760v106h46v-106h-46z" />
    <glyph glyph-name="Igrave" unicode="&#xcc;" 
d="M60 0v714h46v-714h-46zM103 755l-157 142h58l144 -142h-45z" />
    <glyph glyph-name="Iacute" unicode="&#xcd;" 
d="M60 0v714h46v-714h-46zM162 897h58l-157 -142h-45z" />
    <glyph glyph-name="Icircumflex" unicode="&#xce;" 
d="M60 0v714h46v-714h-46zM266 755h-53l-130 114l-130 -114h-53l155 142h56z" />
    <glyph glyph-name="Idieresis" unicode="&#xcf;" 
d="M60 0v714h46v-714h-46zM-46 760v106h46v-106h-46zM166 760v106h46v-106h-46z" />
    <glyph glyph-name="Eth" unicode="&#xd0;" horiz-adv-x="759" 
d="M60 0v350h-60v40h60v324h334q320 0 320 -357q0 -163 -81 -257q-86 -100 -247 -100h-326zM106 674v-284h266v-40h-266v-310h289q125 0 196 76q77 82 77 241q0 317 -284 317h-278z" />
    <glyph glyph-name="Ntilde" unicode="&#xd1;" horiz-adv-x="759" 
d="M60 0v714h58l533 -650h2v650h46v-714h-58l-533 650h-2v-650h-46zM240 778v0h-34q4 35 30 61.5t64 26.5q33 0 86.5 -27t78.5 -27q44 0 55 54h34q-5 -36 -28 -62t-58 -26q-36 0 -90.5 27t-80.5 27q-23 0 -39 -16t-18 -38z" />
    <glyph glyph-name="Ograve" unicode="&#xd2;" horiz-adv-x="816" 
d="M75 357q0 -136 86 -231q93 -102 247 -102t247 102q86 95 86 231t-86 231q-93 102 -247 102t-247 -102q-86 -95 -86 -231zM29 357q0 134 81 239q103 134 298 134t298 -134q81 -105 81 -239t-81 -239q-103 -134 -298 -134t-298 134q-81 105 -81 239zM428 755l-157 142h58
l144 -142h-45z" />
    <glyph glyph-name="Oacute" unicode="&#xd3;" horiz-adv-x="816" 
d="M75 357q0 -136 86 -231q93 -102 247 -102t247 102q86 95 86 231t-86 231q-93 102 -247 102t-247 -102q-86 -95 -86 -231zM29 357q0 134 81 239q103 134 298 134t298 -134q81 -105 81 -239t-81 -239q-103 -134 -298 -134t-298 134q-81 105 -81 239zM487 897h58l-157 -142
h-45z" />
    <glyph glyph-name="Ocircumflex" unicode="&#xd4;" horiz-adv-x="816" 
d="M75 357q0 -136 86 -231q93 -102 247 -102t247 102q86 95 86 231t-86 231q-93 102 -247 102t-247 -102q-86 -95 -86 -231zM29 357q0 134 81 239q103 134 298 134t298 -134q81 -105 81 -239t-81 -239q-103 -134 -298 -134t-298 134q-81 105 -81 239zM591 755h-53l-130 114
l-130 -114h-53l155 142h56z" />
    <glyph glyph-name="Otilde" unicode="&#xd5;" horiz-adv-x="816" 
d="M75 357q0 -136 86 -231q93 -102 247 -102t247 102q86 95 86 231t-86 231q-93 102 -247 102t-247 -102q-86 -95 -86 -231zM29 357q0 134 81 239q103 134 298 134t298 -134q81 -105 81 -239t-81 -239q-103 -134 -298 -134t-298 134q-81 105 -81 239zM268 778v0h-34
q4 35 30 61.5t64 26.5q33 0 86.5 -27t78.5 -27q44 0 55 54h34q-5 -36 -28 -62t-58 -26q-36 0 -90.5 27t-80.5 27q-23 0 -39 -16t-18 -38z" />
    <glyph glyph-name="Odieresis" unicode="&#xd6;" horiz-adv-x="816" 
d="M75 357q0 -136 86 -231q93 -102 247 -102t247 102q86 95 86 231t-86 231q-93 102 -247 102t-247 -102q-86 -95 -86 -231zM29 357q0 134 81 239q103 134 298 134t298 -134q81 -105 81 -239t-81 -239q-103 -134 -298 -134t-298 134q-81 105 -81 239zM279 760v106h46v-106
h-46zM491 760v106h46v-106h-46z" />
    <glyph glyph-name="multiply" unicode="&#xd7;" horiz-adv-x="600" 
d="M79 59l195 194l-195 195l26 27l195 -196l194 196l27 -27l-195 -195l195 -194l-27 -27l-194 195l-195 -195z" />
    <glyph glyph-name="Oslash" unicode="&#xd8;" horiz-adv-x="816" 
d="M33 6l93 93q-97 109 -97 258q0 134 81 239q103 134 298 134q160 0 260 -93l93 93l22 -22l-94 -93q98 -108 98 -258q0 -134 -81 -239q-103 -134 -298 -134q-159 0 -260 92l-93 -92zM158 131l478 475q-91 84 -228 84q-154 0 -247 -102q-86 -95 -86 -231q0 -135 83 -226z
M658 584l-478 -476q90 -84 228 -84q154 0 247 102q86 95 86 231q0 133 -83 227z" />
    <glyph glyph-name="Ugrave" unicode="&#xd9;" horiz-adv-x="740" 
d="M54 264v450h46v-448q0 -120 61 -178q65 -64 209 -64t209 64q61 58 61 178v448h46v-450q0 -280 -316 -280t-316 280zM390 755l-157 142h58l144 -142h-45z" />
    <glyph glyph-name="Uacute" unicode="&#xda;" horiz-adv-x="740" 
d="M54 264v450h46v-448q0 -120 61 -178q65 -64 209 -64t209 64q61 58 61 178v448h46v-450q0 -280 -316 -280t-316 280zM449 897h58l-157 -142h-45z" />
    <glyph glyph-name="Ucircumflex" unicode="&#xdb;" horiz-adv-x="740" 
d="M54 264v450h46v-448q0 -120 61 -178q65 -64 209 -64t209 64q61 58 61 178v448h46v-450q0 -280 -316 -280t-316 280zM553 755h-53l-130 114l-130 -114h-53l155 142h56z" />
    <glyph glyph-name="Udieresis" unicode="&#xdc;" horiz-adv-x="740" 
d="M54 264v450h46v-448q0 -120 61 -178q65 -64 209 -64t209 64q61 58 61 178v448h46v-450q0 -280 -316 -280t-316 280zM241 760v106h46v-106h-46zM453 760v106h46v-106h-46z" />
    <glyph glyph-name="Yacute" unicode="&#xdd;" horiz-adv-x="668" 
d="M311 300l-331 414h64l290 -371l296 371h58l-331 -414v-300h-46v300zM413 897h58l-157 -142h-45z" />
    <glyph glyph-name="Thorn" unicode="&#xde;" horiz-adv-x="667" 
d="M60 0v714h46v-150h326q217 0 217 -198q0 -94 -53 -146q-58 -56 -171 -56h-319v-164h-46zM106 524v-320h318q179 0 179 160q0 104 -72 140q-39 20 -118 20h-307z" />
    <glyph glyph-name="germandbls" unicode="&#xdf;" horiz-adv-x="593" 
d="M102 0h-46v522q0 206 232 206q243 0 243 -176q0 -53 -29 -92q-37 -49 -113 -60v-2q87 -6 134 -59q44 -51 44 -134q0 -94 -59 -152q-64 -63 -180 -63q-56 0 -79 10v40q30 -10 82 -10q190 0 190 184q0 161 -223 161h-37v40h30q194 0 194 137q0 51 -34 86q-49 50 -158 50
q-191 0 -191 -165v-523z" />
    <glyph glyph-name="agrave" unicode="&#xe0;" horiz-adv-x="593" 
d="M476 192v94h-2q-21 -23 -82 -27l-173 -12q-147 -10 -147 -107q0 -116 167 -116q90 0 157 38q80 46 80 130zM95 354h-46q13 96 67 135t171 39q118 0 173 -32q62 -35 62 -118v-287q0 -34 4 -45q7 -16 30 -16q21 0 45 8v-40q-22 -8 -56 -8q-43 0 -55 31q-8 19 -8 81h-2
q-64 -118 -244 -118q-210 0 -210 156q0 134 193 147l179 12q44 3 59 14q19 15 19 59q0 57 -38 84q-46 32 -152 32q-98 0 -141 -32q-39 -30 -50 -102zM317 593l-157 142h58l144 -142h-45z" />
    <glyph glyph-name="aacute" unicode="&#xe1;" horiz-adv-x="593" 
d="M476 192v94h-2q-21 -23 -82 -27l-173 -12q-147 -10 -147 -107q0 -116 167 -116q90 0 157 38q80 46 80 130zM95 354h-46q13 96 67 135t171 39q118 0 173 -32q62 -35 62 -118v-287q0 -34 4 -45q7 -16 30 -16q21 0 45 8v-40q-22 -8 -56 -8q-43 0 -55 31q-8 19 -8 81h-2
q-64 -118 -244 -118q-210 0 -210 156q0 134 193 147l179 12q44 3 59 14q19 15 19 59q0 57 -38 84q-46 32 -152 32q-98 0 -141 -32q-39 -30 -50 -102zM376 735h58l-157 -142h-45z" />
    <glyph glyph-name="acircumflex" unicode="&#xe2;" horiz-adv-x="593" 
d="M476 192v94h-2q-21 -23 -82 -27l-173 -12q-147 -10 -147 -107q0 -116 167 -116q90 0 157 38q80 46 80 130zM95 354h-46q13 96 67 135t171 39q118 0 173 -32q62 -35 62 -118v-287q0 -34 4 -45q7 -16 30 -16q21 0 45 8v-40q-22 -8 -56 -8q-43 0 -55 31q-8 19 -8 81h-2
q-64 -118 -244 -118q-210 0 -210 156q0 134 193 147l179 12q44 3 59 14q19 15 19 59q0 57 -38 84q-46 32 -152 32q-98 0 -141 -32q-39 -30 -50 -102zM480 593h-53l-130 114l-130 -114h-53l155 142h56z" />
    <glyph glyph-name="atilde" unicode="&#xe3;" horiz-adv-x="593" 
d="M476 192v94h-2q-21 -23 -82 -27l-173 -12q-147 -10 -147 -107q0 -116 167 -116q90 0 157 38q80 46 80 130zM95 354h-46q13 96 67 135t171 39q118 0 173 -32q62 -35 62 -118v-287q0 -34 4 -45q7 -16 30 -16q21 0 45 8v-40q-22 -8 -56 -8q-43 0 -55 31q-8 19 -8 81h-2
q-64 -118 -244 -118q-210 0 -210 156q0 134 193 147l179 12q44 3 59 14q19 15 19 59q0 57 -38 84q-46 32 -152 32q-98 0 -141 -32q-39 -30 -50 -102zM157 616v0h-34q4 35 30 61.5t64 26.5q33 0 86.5 -27t78.5 -27q44 0 55 54h34q-5 -36 -28 -62t-58 -26q-36 0 -90.5 27
t-80.5 27q-23 0 -39 -16t-18 -38z" />
    <glyph glyph-name="adieresis" unicode="&#xe4;" horiz-adv-x="593" 
d="M476 192v94h-2q-21 -23 -82 -27l-173 -12q-147 -10 -147 -107q0 -116 167 -116q90 0 157 38q80 46 80 130zM95 354h-46q13 96 67 135t171 39q118 0 173 -32q62 -35 62 -118v-287q0 -34 4 -45q7 -16 30 -16q21 0 45 8v-40q-22 -8 -56 -8q-43 0 -55 31q-8 19 -8 81h-2
q-64 -118 -244 -118q-210 0 -210 156q0 134 193 147l179 12q44 3 59 14q19 15 19 59q0 57 -38 84q-46 32 -152 32q-98 0 -141 -32q-39 -30 -50 -102zM168 598v106h46v-106h-46zM380 598v106h46v-106h-46z" />
    <glyph glyph-name="aring" unicode="&#xe5;" horiz-adv-x="593" 
d="M476 192v94h-2q-21 -23 -82 -27l-173 -12q-147 -10 -147 -107q0 -116 167 -116q90 0 157 38q80 46 80 130zM95 354h-46q13 96 67 135t171 39q118 0 173 -32q62 -35 62 -118v-287q0 -34 4 -45q7 -16 30 -16q21 0 45 8v-40q-22 -8 -56 -8q-43 0 -55 31q-8 19 -8 81h-2
q-64 -118 -244 -118q-210 0 -210 156q0 134 193 147l179 12q44 3 59 14q19 15 19 59q0 57 -38 84q-46 32 -152 32q-98 0 -141 -32q-39 -30 -50 -102zM187 678q0 46 32 78t78 32t78 -32t32 -78t-32 -78t-78 -32t-78 32t-32 78zM221 678q0 -31 22.5 -53.5t53.5 -22.5
q32 0 54 22.5t22 53.5q0 32 -22 54t-54 22q-31 0 -53.5 -22t-22.5 -54z" />
    <glyph glyph-name="ae" unicode="&#xe6;" horiz-adv-x="1055" 
d="M1038 246h-522q2 -99 65 -159q66 -63 179 -63q161 0 218 146h46q-62 -186 -269 -186q-198 0 -255 157h-2q-20 -71 -87 -113q-71 -44 -175 -44q-210 0 -210 156q0 134 193 147l179 12q44 3 59 14q19 15 19 59q0 57 -38 84q-46 32 -152 32q-98 0 -141 -32q-39 -30 -50 -102
h-46q13 96 67 135t171 39q100 0 153 -25q66 -32 76 -111h2q25 63 88 99.5t150 36.5q131 0 207 -79q73 -77 75 -203zM516 286h470q-14 101 -80 154q-62 48 -155 48q-97 0 -158.5 -54.5t-76.5 -147.5zM476 192v94h-2q-21 -23 -82 -27l-173 -12q-147 -10 -147 -107
q0 -116 167 -116q90 0 157 38q80 46 80 130z" />
    <glyph glyph-name="ccedilla" unicode="&#xe7;" horiz-adv-x="611" 
d="M539 179h46q-19 -94 -94 -145q-68 -47 -169 -49l-36 -40l2 -2q29 6 44 6q33 0 58 -15q27 -18 27 -48q0 -39 -37 -59q-30 -17 -74 -17q-49 0 -111 18l10 28q48 -18 90 -18q82 0 82 45q0 38 -61 38q-31 0 -59 -12l-17 15l51 62q-118 7 -191.5 79.5t-73.5 185.5
q0 130 86 206q80 71 203 71q112 0 188 -56q70 -51 75 -121h-46q-5 52 -65 93q-64 44 -152 44q-115 0 -182 -73q-61 -66 -61 -164q0 -80 52 -145q67 -82 191 -82q82 0 142 38q66 41 82 117z" />
    <glyph glyph-name="egrave" unicode="&#xe8;" horiz-adv-x="611" 
d="M594 246h-522q2 -99 65 -159q66 -63 179 -63q161 0 218 146h46q-62 -186 -269 -186q-131 0 -208 74.5t-77 201.5q0 100 61 174q78 94 225 94q131 0 207 -79q73 -77 75 -203zM72 286h470q-14 101 -80 154q-62 48 -155 48q-97 0 -158.5 -54.5t-76.5 -147.5zM326 593
l-157 142h58l144 -142h-45z" />
    <glyph glyph-name="eacute" unicode="&#xe9;" horiz-adv-x="611" 
d="M594 246h-522q2 -99 65 -159q66 -63 179 -63q161 0 218 146h46q-62 -186 -269 -186q-131 0 -208 74.5t-77 201.5q0 100 61 174q78 94 225 94q131 0 207 -79q73 -77 75 -203zM72 286h470q-14 101 -80 154q-62 48 -155 48q-97 0 -158.5 -54.5t-76.5 -147.5zM385 735h58
l-157 -142h-45z" />
    <glyph glyph-name="ecircumflex" unicode="&#xea;" horiz-adv-x="611" 
d="M594 246h-522q2 -99 65 -159q66 -63 179 -63q161 0 218 146h46q-62 -186 -269 -186q-131 0 -208 74.5t-77 201.5q0 100 61 174q78 94 225 94q131 0 207 -79q73 -77 75 -203zM72 286h470q-14 101 -80 154q-62 48 -155 48q-97 0 -158.5 -54.5t-76.5 -147.5zM489 593h-53
l-130 114l-130 -114h-53l155 142h56z" />
    <glyph glyph-name="edieresis" unicode="&#xeb;" horiz-adv-x="611" 
d="M594 246h-522q2 -99 65 -159q66 -63 179 -63q161 0 218 146h46q-62 -186 -269 -186q-131 0 -208 74.5t-77 201.5q0 100 61 174q78 94 225 94q131 0 207 -79q73 -77 75 -203zM72 286h470q-14 101 -80 154q-62 48 -155 48q-97 0 -158.5 -54.5t-76.5 -147.5zM177 598v106h46
v-106h-46zM389 598v106h46v-106h-46z" />
    <glyph glyph-name="igrave" unicode="&#xec;" 
d="M60 0v512h46v-512h-46zM103 593l-157 142h58l144 -142h-45z" />
    <glyph glyph-name="iacute" unicode="&#xed;" 
d="M60 0v512h46v-512h-46zM162 735h58l-157 -142h-45z" />
    <glyph glyph-name="icircumflex" unicode="&#xee;" 
d="M60 0v512h46v-512h-46zM266 593h-53l-130 114l-130 -114h-53l155 142h56z" />
    <glyph glyph-name="idieresis" unicode="&#xef;" 
d="M60 0v512h46v-512h-46zM-46 598v106h46v-106h-46zM166 598v106h46v-106h-46z" />
    <glyph glyph-name="eth" unicode="&#xf0;" horiz-adv-x="630" 
d="M72 256q0 -95 61 -160q67 -72 182 -72t182 72q61 65 61 160t-61 160q-67 72 -182 72t-182 -72q-61 -65 -61 -160zM26 256q0 112 75 190q78 82 203 82q161 0 240 -120l2 2q-60 130 -149 203t-230 109l27 31q183 -46 294 -172q116 -132 116 -313q0 -127 -76 -204
q-78 -80 -213 -80q-132 0 -213 82q-76 77 -76 190zM463 753l23 -23l-268 -133l-27 20z" />
    <glyph glyph-name="ntilde" unicode="&#xf1;" horiz-adv-x="611" 
d="M56 0v512h46v-102h2q62 118 216 118q152 0 206 -83q29 -45 29 -129v-316h-46v314q0 85 -38 126q-45 48 -152 48q-106 0 -165 -59q-52 -52 -52 -130v-299h-46zM166 616v0h-34q4 35 30 61.5t64 26.5q33 0 86.5 -27t78.5 -27q44 0 55 54h34q-5 -36 -28 -62t-58 -26
q-36 0 -90.5 27t-80.5 27q-23 0 -39 -16t-18 -38z" />
    <glyph glyph-name="ograve" unicode="&#xf2;" horiz-adv-x="630" 
d="M72 256q0 -95 61 -160q67 -72 182 -72t182 72q61 65 61 160t-61 160q-67 72 -182 72t-182 -72q-61 -65 -61 -160zM26 256q0 113 76 190q81 82 213 82t213 -82q76 -77 76 -190t-76 -190q-81 -82 -213 -82t-213 82q-76 77 -76 190zM335 593l-157 142h58l144 -142h-45z" />
    <glyph glyph-name="oacute" unicode="&#xf3;" horiz-adv-x="630" 
d="M72 256q0 -95 61 -160q67 -72 182 -72t182 72q61 65 61 160t-61 160q-67 72 -182 72t-182 -72q-61 -65 -61 -160zM26 256q0 113 76 190q81 82 213 82t213 -82q76 -77 76 -190t-76 -190q-81 -82 -213 -82t-213 82q-76 77 -76 190zM394 735h58l-157 -142h-45z" />
    <glyph glyph-name="ocircumflex" unicode="&#xf4;" horiz-adv-x="630" 
d="M72 256q0 -95 61 -160q67 -72 182 -72t182 72q61 65 61 160t-61 160q-67 72 -182 72t-182 -72q-61 -65 -61 -160zM26 256q0 113 76 190q81 82 213 82t213 -82q76 -77 76 -190t-76 -190q-81 -82 -213 -82t-213 82q-76 77 -76 190zM498 593h-53l-130 114l-130 -114h-53
l155 142h56z" />
    <glyph glyph-name="otilde" unicode="&#xf5;" horiz-adv-x="630" 
d="M72 256q0 -95 61 -160q67 -72 182 -72t182 72q61 65 61 160t-61 160q-67 72 -182 72t-182 -72q-61 -65 -61 -160zM26 256q0 113 76 190q81 82 213 82t213 -82q76 -77 76 -190t-76 -190q-81 -82 -213 -82t-213 82q-76 77 -76 190zM175 616v0h-34q4 35 30 61.5t64 26.5
q33 0 86.5 -27t78.5 -27q44 0 55 54h34q-5 -36 -28 -62t-58 -26q-36 0 -90.5 27t-80.5 27q-23 0 -39 -16t-18 -38z" />
    <glyph glyph-name="odieresis" unicode="&#xf6;" horiz-adv-x="630" 
d="M72 256q0 -95 61 -160q67 -72 182 -72t182 72q61 65 61 160t-61 160q-67 72 -182 72t-182 -72q-61 -65 -61 -160zM26 256q0 113 76 190q81 82 213 82t213 -82q76 -77 76 -190t-76 -190q-81 -82 -213 -82t-213 82q-76 77 -76 190zM186 598v106h46v-106h-46zM398 598v106
h46v-106h-46z" />
    <glyph glyph-name="divide" unicode="&#xf7;" horiz-adv-x="600" 
d="M47 233v40h506v-40h-506zM247 453q0 22 15.5 37.5t37.5 15.5t37.5 -15.5t15.5 -37.5t-15.5 -37.5t-37.5 -15.5t-37.5 15.5t-15.5 37.5zM247 53q0 22 15.5 37.5t37.5 15.5t37.5 -15.5t15.5 -37.5t-15.5 -37.5t-37.5 -15.5t-37.5 15.5t-15.5 37.5z" />
    <glyph glyph-name="oslash" unicode="&#xf8;" horiz-adv-x="630" 
d="M131 98l349 334q-64 56 -165 56q-115 0 -182 -72q-61 -65 -61 -160q0 -94 59 -158zM499 414l-349 -334q66 -56 165 -56q115 0 182 72q61 65 61 160q0 93 -59 158zM29 0l71 68q-74 76 -74 188q0 113 76 190q81 82 213 82q117 0 196 -66l72 69l18 -19l-71 -68
q74 -77 74 -188q0 -113 -76 -190q-81 -82 -213 -82q-118 0 -196 66l-72 -69z" />
    <glyph glyph-name="ugrave" unicode="&#xf9;" horiz-adv-x="611" 
d="M555 512v-512h-46v102h-2q-62 -118 -216 -118q-152 0 -206 83q-29 45 -29 129v316h46v-314q0 -85 38 -126q45 -48 152 -48q106 0 165 59q52 52 52 130v299h46zM326 593l-157 142h58l144 -142h-45z" />
    <glyph glyph-name="uacute" unicode="&#xfa;" horiz-adv-x="611" 
d="M555 512v-512h-46v102h-2q-62 -118 -216 -118q-152 0 -206 83q-29 45 -29 129v316h46v-314q0 -85 38 -126q45 -48 152 -48q106 0 165 59q52 52 52 130v299h46zM385 735h58l-157 -142h-45z" />
    <glyph glyph-name="ucircumflex" unicode="&#xfb;" horiz-adv-x="611" 
d="M555 512v-512h-46v102h-2q-62 -118 -216 -118q-152 0 -206 83q-29 45 -29 129v316h46v-314q0 -85 38 -126q45 -48 152 -48q106 0 165 59q52 52 52 130v299h46zM489 593h-53l-130 114l-130 -114h-53l155 142h56z" />
    <glyph glyph-name="udieresis" unicode="&#xfc;" horiz-adv-x="611" 
d="M555 512v-512h-46v102h-2q-62 -118 -216 -118q-152 0 -206 83q-29 45 -29 129v316h46v-314q0 -85 38 -126q45 -48 152 -48q106 0 165 59q52 52 52 130v299h46zM177 598v106h46v-106h-46zM389 598v106h46v-106h-46z" />
    <glyph glyph-name="yacute" unicode="&#xfd;" horiz-adv-x="519" 
d="M246 0l-259 512h52l230 -461l211 461h52l-282 -602q-23 -48 -46 -68q-31 -26 -86 -26h-64v40h55q44 0 62.5 16t48.5 76zM339 735h58l-157 -142h-45z" />
    <glyph glyph-name="thorn" unicode="&#xfe;" horiz-adv-x="630" 
d="M56 -202v916h46v-314h2q21 53 73 87q63 41 154 41q129 0 204 -82q69 -76 69 -191q0 -121 -77.5 -196t-195.5 -75q-86 0 -149 42q-51 32 -78 83h-2v-311h-46zM336 488q-129 0 -192 -79q-48 -61 -48 -148q0 -123 78 -186q63 -51 156 -51q95 0 158 57q70 62 70 173
q0 108 -62 171t-160 63z" />
    <glyph glyph-name="ydieresis" unicode="&#xff;" horiz-adv-x="519" 
d="M246 0l-259 512h52l230 -461l211 461h52l-282 -602q-23 -48 -46 -68q-31 -26 -86 -26h-64v40h55q44 0 62.5 16t48.5 76zM131 598v106h46v-106h-46zM343 598v106h46v-106h-46z" />
    <glyph glyph-name="minus" horiz-adv-x="600" 
d="M47 233v40h506v-40h-506z" />
    <glyph glyph-name="fraction" horiz-adv-x="167" 
d="M-165 -16l457 736h40l-457 -736h-40z" />
    <glyph glyph-name="fi" horiz-adv-x="444" 
d="M352 0v512h46v-512h-46zM352 608v106h46v-106h-46zM110 0v472h-120v40h120v77q0 66 25 96q30 35 105 35q21 0 79 -6v-40q-33 6 -73 6q-90 0 -90 -77v-91h148v-40h-148v-472h-46z" />
    <glyph glyph-name="fl" horiz-adv-x="444" 
d="M110 0v472h-120v40h120v77q0 66 25 96q30 35 105 35q21 0 79 -6v-40q-33 6 -73 6q-90 0 -90 -77v-91h148v-40h-148v-472h-46zM352 0v714h46v-714h-46z" />
    <glyph glyph-name="breve" 
d="M-75 720h34q19 -83 124 -83t124 83h34q-13 -117 -158 -117t-158 117z" />
    <glyph glyph-name="dotaccent" 
d="M60 598v106h46v-106h-46z" />
    <glyph glyph-name="ring" 
d="M-27 678q0 46 32 78t78 32t78 -32t32 -78t-32 -78t-78 -32t-78 32t-32 78zM7 678q0 -31 22.5 -53.5t53.5 -22.5q32 0 54 22.5t22 53.5q0 32 -22 54t-54 22q-31 0 -53.5 -22t-22.5 -54z" />
    <glyph glyph-name="hungarumlaut" 
d="M64 735h58l-157 -142h-45zM258 735h58l-157 -142h-45z" />
    <glyph glyph-name="ogonek" 
d="M211 -148l12 -25q-43 -17 -103 -17q-95 0 -95 72q0 42 44 78q33 27 75 40h31q-110 -47 -110 -112q0 -50 65 -50q44 0 81 14z" />
    <glyph glyph-name="caron" 
d="M213 735h53l-155 -142h-56l-155 142h53l130 -114z" />
    <glyph glyph-name="Lslash" horiz-adv-x="574" 
d="M60 0v237l-60 -48v46l60 48v431h46v-394l258 208v-46l-258 -208v-234h468v-40h-514z" />
    <glyph glyph-name="dotlessi" 
d="M60 0v512h46v-512h-46z" />
    <glyph glyph-name="lslash" 
d="M60 0v328l-60 -63v45l60 63v341h46v-293l60 63v-45l-60 -63v-376h-46z" />
    </font>
</defs>
</svg>
